<?xml version="1.0" encoding="UTF-8"?> <!-- Generator: Adobe Illustrator 23.1.1, SVG Export Plug-In . SVG Version: 6.00 Build 0) --> <svg xmlns="http://www.w3.org/2000/svg" xmlns:xlink="http://www.w3.org/1999/xlink" id="Layer_1" x="0px" y="0px" viewBox="0 0 214.2 78.6" style="enable-background:new 0 0 214.2 78.6;" xml:space="preserve"> <style type="text/css"> .st0{display:none;} .st1{fill:#0072FF;} .st2{fill:#F89722;} .st3{display:inline;} .st4{fill-rule:evenodd;clip-rule:evenodd;fill:#F89722;} </style> <g class="st0"> </g> <g> <g> <path class="st1" d="M38.3,69.5V8.4h25.2c4.6,0,8.5,0.8,11.9,2.5c3.3,1.6,5.9,4,7.7,7c1.8,3.1,2.7,6.7,2.7,10.8 c0,4.2-0.9,7.8-2.8,10.8c-1.8,3-4.5,5.2-7.9,6.7s-7.4,2.3-12.1,2.3H47V37h13.2c2.2,0,4.1-0.3,5.6-0.9c1.5-0.6,2.6-1.5,3.4-2.7 s1.2-2.7,1.2-4.6s-0.4-3.5-1.2-4.7c-0.8-1.2-1.9-2.2-3.4-2.8c-1.5-0.6-3.4-0.9-5.6-0.9h-7.3v49.2L38.3,69.5L38.3,69.5z M72.7,41.6 l15.2,27.9H71.8L56.9,41.6H72.7z"></path> <path class="st1" d="M110.1,70.4c-4.8,0-8.9-0.9-12.4-2.8s-6.1-4.6-8-8.1s-2.8-7.7-2.8-12.6c0-4.7,0.9-8.9,2.8-12.4 s4.5-6.3,7.9-8.3s7.4-3,12-3c3.3,0,6.2,0.5,8.9,1.5c2.7,1,5,2.5,7,4.5s3.5,4.4,4.6,7.4s1.6,6.2,1.6,10v3.6H92v-8.5h26.3 c0-1.6-0.4-2.9-1.1-4.1c-0.7-1.2-1.7-2.2-2.9-2.8s-2.7-1-4.3-1c-1.6,0-3.1,0.4-4.4,1.1c-1.3,0.7-2.3,1.7-3.1,3 c-0.8,1.2-1.2,2.6-1.2,4.2v8.6c0,1.9,0.4,3.5,1.1,4.9s1.8,2.5,3.1,3.3s3,1.2,4.8,1.2c1.3,0,2.5-0.2,3.5-0.5c1.1-0.4,2-0.9,2.7-1.6 s1.3-1.6,1.7-2.6l13.4,0.4c-0.6,3-1.8,5.6-3.7,7.8c-1.9,2.2-4.3,3.9-7.4,5.2C117.6,69.8,114.1,70.4,110.1,70.4z"></path> <path class="st1" d="M157.6,69.5H135V8.4h22.6c6.2,0,11.6,1.2,16.1,3.7c4.5,2.4,8,5.9,10.4,10.5s3.7,10,3.7,16.4 s-1.2,11.8-3.7,16.4c-2.4,4.6-5.9,8.1-10.4,10.5C169.1,68.3,163.8,69.5,157.6,69.5z M149.8,56.9h7.2c3.4,0,6.3-0.6,8.7-1.7 c2.4-1.2,4.2-3.1,5.4-5.7c1.2-2.6,1.8-6.1,1.8-10.5s-0.6-7.9-1.8-10.5s-3-4.5-5.4-5.7s-5.3-1.7-8.8-1.7h-7L149.8,56.9L149.8,56.9z "></path> <g> <rect x="191.9" y="25.7" class="st1" width="14.6" height="43.8"></rect> <rect x="191.9" y="8" class="st2" width="14.6" height="13"></rect> </g> </g> <g id="Symbols" class="st0"> <g transform="translate(-2.000000, -4.000000)" class="st3"> <path id="check" class="st4" d="M15.7,63.6L1.2,49c-1.6-1.6-4.3-1.6-5.9,0s-1.6,4.3,0,5.9l17.5,17.5c1.6,1.6,4.3,1.6,5.9,0 L63,28.1c1.6-1.6,1.6-4.3,0-5.9s-4.3-1.6-5.9,0L15.7,63.6z"></path> </g> </g> <polygon class="st2" points="53.2,37 53.1,20.3 20.5,52.4 6.2,38.4 6.1,55.1 11.9,60.9 11.9,60.9 13.7,62.7 20.5,69.5 20.6,69.5 20.6,69.5 "></polygon> </g> </svg> 